<svg width="64" height="18" viewBox="0 0 64 18" fill="none" xmlns="http://www.w3.org/2000/svg">
<rect x="0.5" y="2.5" width="13" height="13" rx="2" fill="#FC4747"/>
<path d="M7.46619 12.088C7.04485 12.088 6.65285 12.016 6.29019 11.872C5.93285 11.7227 5.61819 11.5147 5.34619 11.248C5.07952 10.9813 4.87152 10.672 4.72219 10.32C4.57285 9.96267 4.49819 9.57867 4.49819 9.168C4.49819 8.75733 4.57285 8.376 4.72219 8.024C4.87152 7.66667 5.07952 7.35733 5.34619 7.096C5.61285 6.83467 5.92485 6.632 6.28219 6.488C6.64485 6.33867 7.03685 6.264 7.45819 6.264C7.90619 6.264 8.30352 6.336 8.65019 6.48C9.00219 6.624 9.30885 6.82133 9.57019 7.072L8.73019 7.92C8.58085 7.76 8.39952 7.63467 8.18619 7.544C7.97819 7.45333 7.73552 7.408 7.45819 7.408C7.21285 7.408 6.98619 7.45067 6.77819 7.536C6.57552 7.616 6.39952 7.73333 6.25019 7.888C6.10619 8.04267 5.99152 8.22933 5.90619 8.448C5.82619 8.66667 5.78619 8.90667 5.78619 9.168C5.78619 9.43467 5.82619 9.67733 5.90619 9.896C5.99152 10.1147 6.10619 10.3013 6.25019 10.456C6.39952 10.6107 6.57552 10.7307 6.77819 10.816C6.98619 10.9013 7.21285 10.944 7.45819 10.944C7.74619 10.944 7.99685 10.8987 8.21019 10.808C8.42352 10.7173 8.60752 10.592 8.76219 10.432L9.61019 11.28C9.33819 11.5307 9.02619 11.728 8.67419 11.872C8.32752 12.016 7.92485 12.088 7.46619 12.088Z" fill="white"/>
<path d="M20.264 13.62C19.664 13.62 19.108 13.512 18.596 13.296C18.084 13.072 17.636 12.764 17.252 12.372C16.876 11.98 16.584 11.524 16.376 11.004C16.168 10.484 16.064 9.928 16.064 9.336C16.064 8.736 16.168 8.176 16.376 7.656C16.584 7.136 16.876 6.684 17.252 6.3C17.636 5.908 18.08 5.604 18.584 5.388C19.096 5.164 19.652 5.052 20.252 5.052C20.908 5.052 21.484 5.164 21.98 5.388C22.476 5.612 22.916 5.916 23.3 6.3L22.52 7.08C22.256 6.784 21.932 6.552 21.548 6.384C21.172 6.216 20.74 6.132 20.252 6.132C19.812 6.132 19.408 6.212 19.04 6.372C18.672 6.524 18.352 6.744 18.08 7.032C17.808 7.32 17.596 7.66 17.444 8.052C17.3 8.444 17.228 8.872 17.228 9.336C17.228 9.8 17.3 10.228 17.444 10.62C17.596 11.012 17.808 11.352 18.08 11.64C18.352 11.928 18.672 12.152 19.04 12.312C19.408 12.464 19.812 12.54 20.252 12.54C20.772 12.54 21.224 12.456 21.608 12.288C21.992 12.112 22.316 11.876 22.58 11.58L23.36 12.348C22.976 12.748 22.524 13.06 22.004 13.284C21.492 13.508 20.912 13.62 20.264 13.62ZM24.5657 13.5V7.8H25.6457V13.5H24.5657ZM25.1057 6.66C24.9057 6.66 24.7417 6.596 24.6137 6.468C24.4857 6.332 24.4217 6.164 24.4217 5.964C24.4217 5.772 24.4857 5.612 24.6137 5.484C24.7417 5.348 24.9057 5.28 25.1057 5.28C25.3057 5.28 25.4697 5.348 25.5977 5.484C25.7257 5.612 25.7897 5.772 25.7897 5.964C25.7897 6.164 25.7257 6.332 25.5977 6.468C25.4697 6.596 25.3057 6.66 25.1057 6.66ZM31.2693 13.5V10.176C31.2693 9.744 31.1333 9.388 30.8613 9.108C30.5893 8.828 30.2373 8.688 29.8053 8.688C29.5173 8.688 29.2613 8.752 29.0373 8.88C28.8133 9.008 28.6373 9.184 28.5093 9.408C28.3813 9.632 28.3173 9.888 28.3173 10.176L27.8733 9.924C27.8733 9.492 27.9693 9.108 28.1613 8.772C28.3533 8.436 28.6213 8.172 28.9653 7.98C29.3093 7.78 29.6973 7.68 30.1293 7.68C30.5613 7.68 30.9413 7.788 31.2693 8.004C31.6053 8.22 31.8693 8.504 32.0613 8.856C32.2533 9.2 32.3493 9.568 32.3493 9.96V13.5H31.2693ZM27.2373 13.5V7.8H28.3173V13.5H27.2373ZM36.4515 13.62C35.8835 13.62 35.3715 13.492 34.9155 13.236C34.4595 12.972 34.0995 12.616 33.8355 12.168C33.5715 11.72 33.4395 11.212 33.4395 10.644C33.4395 10.084 33.5675 9.58 33.8235 9.132C34.0875 8.684 34.4395 8.332 34.8795 8.076C35.3275 7.812 35.8275 7.68 36.3795 7.68C36.9075 7.68 37.3715 7.8 37.7715 8.04C38.1795 8.28 38.4955 8.612 38.7195 9.036C38.9515 9.46 39.0675 9.94 39.0675 10.476C39.0675 10.556 39.0635 10.644 39.0555 10.74C39.0475 10.828 39.0315 10.932 39.0075 11.052H34.1955V10.152H38.4315L38.0355 10.5C38.0355 10.116 37.9675 9.792 37.8315 9.528C37.6955 9.256 37.5035 9.048 37.2555 8.904C37.0075 8.752 36.7075 8.676 36.3555 8.676C35.9875 8.676 35.6635 8.756 35.3835 8.916C35.1035 9.076 34.8875 9.3 34.7355 9.588C34.5835 9.876 34.5075 10.216 34.5075 10.608C34.5075 11.008 34.5875 11.36 34.7475 11.664C34.9075 11.96 35.1355 12.192 35.4315 12.36C35.7275 12.52 36.0675 12.6 36.4515 12.6C36.7715 12.6 37.0635 12.544 37.3275 12.432C37.5995 12.32 37.8315 12.152 38.0235 11.928L38.7195 12.636C38.4475 12.956 38.1115 13.2 37.7115 13.368C37.3195 13.536 36.8995 13.62 36.4515 13.62ZM42.0451 13.5L39.5971 7.146H41.1091L42.9721 12.285H42.3511L44.2411 7.146H45.7351L43.2601 13.5H42.0451ZM47.689 13.599C47.215 13.599 46.792 13.503 46.42 13.311C46.054 13.113 45.766 12.84 45.556 12.492C45.346 12.144 45.241 11.751 45.241 11.313C45.241 10.875 45.343 10.485 45.547 10.143C45.757 9.795 46.039 9.522 46.393 9.324C46.747 9.126 47.146 9.027 47.59 9.027C48.022 9.027 48.403 9.12 48.733 9.306C49.063 9.492 49.321 9.75 49.507 10.08C49.699 10.41 49.795 10.788 49.795 11.214C49.795 11.292 49.789 11.376 49.777 11.466C49.771 11.55 49.756 11.649 49.732 11.763L45.961 11.772V10.827L49.147 10.818L48.553 11.214C48.547 10.962 48.508 10.755 48.436 10.593C48.364 10.425 48.256 10.299 48.112 10.215C47.974 10.125 47.803 10.08 47.599 10.08C47.383 10.08 47.194 10.131 47.032 10.233C46.876 10.329 46.753 10.467 46.663 10.647C46.579 10.827 46.537 11.046 46.537 11.304C46.537 11.562 46.582 11.784 46.672 11.97C46.768 12.15 46.9 12.291 47.068 12.393C47.242 12.489 47.446 12.537 47.68 12.537C47.896 12.537 48.091 12.501 48.265 12.429C48.439 12.351 48.592 12.237 48.724 12.087L49.48 12.843C49.264 13.095 49.003 13.284 48.697 13.41C48.391 13.536 48.055 13.599 47.689 13.599ZM50.4596 13.5V9.126H51.8366V13.5H50.4596ZM51.8366 11.097L51.2606 10.647C51.3746 10.137 51.5666 9.741 51.8366 9.459C52.1066 9.177 52.4816 9.036 52.9616 9.036C53.1716 9.036 53.3546 9.069 53.5106 9.135C53.6726 9.195 53.8136 9.291 53.9336 9.423L53.1146 10.458C53.0546 10.392 52.9796 10.341 52.8896 10.305C52.7996 10.269 52.6976 10.251 52.5836 10.251C52.3556 10.251 52.1726 10.323 52.0346 10.467C51.9026 10.605 51.8366 10.815 51.8366 11.097ZM55.7968 13.608C55.5388 13.608 55.2838 13.575 55.0318 13.509C54.7858 13.443 54.5548 13.35 54.3388 13.23C54.1288 13.104 53.9488 12.96 53.7988 12.798L54.5818 12.006C54.7258 12.162 54.8968 12.285 55.0948 12.375C55.2928 12.459 55.5088 12.501 55.7428 12.501C55.9048 12.501 56.0278 12.477 56.1118 12.429C56.2018 12.381 56.2468 12.315 56.2468 12.231C56.2468 12.123 56.1928 12.042 56.0848 11.988C55.9828 11.928 55.8508 11.877 55.6888 11.835C55.5268 11.787 55.3558 11.736 55.1758 11.682C54.9958 11.628 54.8248 11.553 54.6628 11.457C54.5008 11.361 54.3688 11.229 54.2668 11.061C54.1648 10.887 54.1138 10.668 54.1138 10.404C54.1138 10.122 54.1858 9.879 54.3298 9.675C54.4738 9.465 54.6778 9.3 54.9418 9.18C55.2058 9.06 55.5148 9 55.8688 9C56.2408 9 56.5828 9.066 56.8948 9.198C57.2128 9.324 57.4708 9.513 57.6688 9.765L56.8858 10.557C56.7478 10.395 56.5918 10.281 56.4178 10.215C56.2498 10.149 56.0848 10.116 55.9228 10.116C55.7668 10.116 55.6498 10.14 55.5718 10.188C55.4938 10.23 55.4548 10.293 55.4548 10.377C55.4548 10.467 55.5058 10.539 55.6078 10.593C55.7098 10.647 55.8418 10.695 56.0038 10.737C56.1658 10.779 56.3368 10.83 56.5168 10.89C56.6968 10.95 56.8678 11.031 57.0298 11.133C57.1918 11.235 57.3238 11.373 57.4258 11.547C57.5278 11.715 57.5788 11.937 57.5788 12.213C57.5788 12.639 57.4168 12.978 57.0928 13.23C56.7748 13.482 56.3428 13.608 55.7968 13.608ZM60.4858 13.599C60.0118 13.599 59.5888 13.503 59.2168 13.311C58.8508 13.113 58.5628 12.84 58.3528 12.492C58.1428 12.144 58.0378 11.751 58.0378 11.313C58.0378 10.875 58.1398 10.485 58.3438 10.143C58.5538 9.795 58.8358 9.522 59.1898 9.324C59.5438 9.126 59.9428 9.027 60.3868 9.027C60.8188 9.027 61.1998 9.12 61.5298 9.306C61.8598 9.492 62.1178 9.75 62.3038 10.08C62.4958 10.41 62.5918 10.788 62.5918 11.214C62.5918 11.292 62.5858 11.376 62.5738 11.466C62.5678 11.55 62.5528 11.649 62.5288 11.763L58.7578 11.772V10.827L61.9438 10.818L61.3498 11.214C61.3438 10.962 61.3048 10.755 61.2328 10.593C61.1608 10.425 61.0528 10.299 60.9088 10.215C60.7708 10.125 60.5998 10.08 60.3958 10.08C60.1798 10.08 59.9908 10.131 59.8288 10.233C59.6728 10.329 59.5498 10.467 59.4598 10.647C59.3758 10.827 59.3338 11.046 59.3338 11.304C59.3338 11.562 59.3788 11.784 59.4688 11.97C59.5648 12.15 59.6968 12.291 59.8648 12.393C60.0388 12.489 60.2428 12.537 60.4768 12.537C60.6928 12.537 60.8878 12.501 61.0618 12.429C61.2358 12.351 61.3888 12.237 61.5208 12.087L62.2768 12.843C62.0608 13.095 61.7998 13.284 61.4938 13.41C61.1878 13.536 60.8518 13.599 60.4858 13.599Z" fill="white"/>
</svg>
